<svg xmlns="http://www.w3.org/2000/svg" xmlns:xlink="http://www.w3.org/1999/xlink" width="63px" height="62px" viewBox="0 0 63 62" version="1.1">
    <g id="Welcome" stroke="none" stroke-width="1" fill="none" fill-rule="evenodd">
        <g id="style-sheets-copy-2" transform="translate(-1017.000000, -792.000000)" fill="#FFFFFF">
            <path d="M1058.18577,822.230363 L1050.95022,822.230363 L1050.95022,845.713499 L1040.2231,845.713499 L1040.2231,822.230363 L1035.12472,822.230363 L1035.12472,813.935143 L1040.2231,813.935143 L1040.2231,808.565829 C1040.2231,804.720834 1042.2267,798.713499 1051.04451,798.713499 L1058.98525,798.743479 L1058.98525,806.796982 L1053.2249,806.796982 C1052.28694,806.796982 1050.95022,807.223266 1050.95022,809.058633 L1050.95022,813.935143 L1059.12472,813.935143 L1058.18577,822.230363 Z M1048.12472,792.713499 C1031.00332,792.713499 1017.12472,806.369053 1017.12472,823.213499 C1017.12472,840.058883 1031.00332,853.713499 1048.12472,853.713499 C1065.24517,853.713499 1079.12472,840.058883 1079.12472,823.213499 C1079.12472,806.369053 1065.24517,792.713499 1048.12472,792.713499 L1048.12472,792.713499 Z" id="Fill-1-Copy"/>
        </g>
    </g>
</svg>