<?xml version="1.0" encoding="utf-8"?>
<!-- Generator: Adobe Illustrator 22.1.0, SVG Export Plug-In . SVG Version: 6.00 Build 0)  -->
<svg version="1.1" id="Layer_1" xmlns="http://www.w3.org/2000/svg" xmlns:xlink="http://www.w3.org/1999/xlink" x="0px" y="0px"
	 viewBox="0 0 150 150" style="enable-background:new 0 0 150 150;" xml:space="preserve">
<style type="text/css">
	.st0{fill:#FFFFFF;}
	.st1{fill:none;}
</style>
<g>
	<path class="st0" d="M75,134.2c-32.3,0-58.6-26.3-58.6-58.6C16.4,43.3,42.7,17,75,17s58.6,26.3,58.6,58.6
		C133.6,107.9,107.4,134.2,75,134.2z M75,22c-29.6,0-53.6,24-53.6,53.6c0,29.6,24,53.6,53.6,53.6s53.6-24,53.6-53.6
		C128.6,46,104.6,22,75,22z"/>
</g>
<g>
	<g>
		<path class="st1" d="M76.7,86.7c-5.6-1.4-9.9-5.5-11.7-11c-0.1-0.2-0.1-0.3-0.1-0.5l-0.1-0.6l0.3-0.2c2.7-1.8,7.2-1.2,9.3,1.3
			c1.6,1.9,3.8,3.1,6.3,3.2c2.4,0.1,4.7-0.7,6.4-2.4c5.5-5.3,7.5-7.1,12.1-11.6l2-2c3.5-3.4,3.7-8.8,0.4-12.2
			c-1.6-1.7-3.8-2.7-6.1-2.7c-2.3-0.1-4.5,0.8-6.3,2.4l-2,1.9c-4.7,4.5-6.6,6.3-12.1,11.7c-1.3,1.3-2.4,1.4-3.8,1.2
			c0.5,0.1,1,0.2,1.5,0.3c5.5,1.4,10,5.4,11.9,10.7c0.1,0.2,0.2,0.5,0.2,0.7l0.2,0.7l-0.3,0.2c-2.8,1.8-7.3,1.1-9.3-1.3
			c-1.6-1.9-3.9-3-6.2-3.2c-2.3-0.1-4.5,0.6-6.2,2.2c-6.6,6.1-8.2,7.7-14.6,14c-3.3,3.2-3.2,8.6,0.1,12.1c3.3,3.3,8.6,3.4,12,0.3
			c6.5-6.2,8.2-7.7,14.3-13.8c1-1,1.9-1.3,3.4-1.1c0.2,0,0.3,0,0.5,0C78.1,87.1,77.4,86.9,76.7,86.7z"/>
	</g>
	<g>
		<path class="st0" d="M82.4,88.3c-1.5,0-2.9,0-4.3-0.2c-1.1-0.2-1.7,0-2.5,0.8c-6.2,6.1-7.8,7.6-14.4,13.8
			c-3.7,3.5-9.7,3.4-13.4-0.3c-3.7-3.8-3.8-9.9-0.1-13.5c6.4-6.3,8-7.9,14.6-14c1.9-1.8,4.3-2.7,6.9-2.5c2.7,0.2,5.2,1.5,6.9,3.5
			c1.7,2,5.3,2.6,7.7,1.3c-0.1-0.2-0.1-0.4-0.2-0.6c-1.8-5-6-8.8-11.2-10.1c-1.3-0.3-2.7-0.5-4-0.5c-3.8,0-7.4,1.4-10.3,4
			c-6.9,6.3-8.9,8.2-15.2,14.6c-6,6-5.9,15.9,0.1,22c6.1,6.3,15.8,6.6,22.1,0.8c4.7-4.4,6.9-6.5,10.1-9.6c1.3-1.3,2.8-2.7,4.7-4.5
			c1.4-1.4,2.5-3.1,3.3-5C83.1,88.3,82.8,88.3,82.4,88.3z"/>
	</g>
	<g>
		<path class="st0" d="M111,54.3c-1-6.3-4.6-10.5-10.7-12.6c-6-2.1-11.4-0.9-16.1,3.6c-3.9,3.7-5.9,5.6-8.4,8
			c-1.5,1.4-3.1,3-5.4,5.2c-1.8,1.8-3.2,3.6-4,5.7c0.4,0,0.7,0,1.1,0c1.4,0,2.7,0,4,0.2c1.2,0.2,2,0.1,3-1
			c5.4-5.4,7.4-7.2,12.1-11.7l2-1.9c1.9-1.8,4.4-2.8,7-2.7c2.6,0.1,5,1.2,6.8,3.1c3.7,3.9,3.5,9.9-0.4,13.7l-2,2
			c-4.7,4.5-6.6,6.4-12.1,11.6c-2,1.9-4.5,2.8-7.2,2.7c-2.7-0.1-5.2-1.4-7-3.5c-1.7-2-5.4-2.6-7.7-1.3c0,0.1,0.1,0.2,0.1,0.3
			c1.7,5.1,5.8,8.9,11,10.3c5.3,1.4,11,0,15-3.8c6.1-5.7,8.1-7.6,13.5-12.9l1.2-1.2C110.4,64.2,111.9,59.6,111,54.3z"/>
	</g>
	<g>
		<path d="M112,54.1c-1-6.6-5-11.2-11.4-13.4c-6.3-2.2-12.2-0.9-17.1,3.8c-3.9,3.7-5.9,5.6-8.4,8c-1.5,1.4-3.1,3-5.4,5.2
			c-2.2,2.1-3.6,4.3-4.5,6.7L65,65.1l0.7,0c0.6,0,1.2,0,1.8,0c-3.6,0.3-6.9,1.7-9.7,4.2c-7,6.3-8.9,8.2-15.2,14.6
			c-6.4,6.4-6.3,16.9,0.1,23.5c3.4,3.5,7.8,5.2,12.3,5.2c4,0,8.1-1.5,11.3-4.4c4.7-4.4,6.9-6.5,10.1-9.7c1.3-1.3,2.8-2.7,4.7-4.5
			c1.7-1.6,3-3.7,3.8-6.1l0.2-0.6l-0.7,0c-0.6,0-1.3,0-1.9,0c-0.2,0-0.4,0-0.6,0c4-0.2,7.8-1.7,10.9-4.6c6.1-5.7,8.1-7.7,13.5-12.9
			l1.2-1.2C111.3,64.7,112.9,59.7,112,54.1z M105.5,69.1c-5.4,5.3-7.4,7.3-13.5,12.9c-4.1,3.8-9.7,5.2-15,3.8
			c-5.2-1.4-9.3-5.2-11-10.3c0-0.1-0.1-0.2-0.1-0.3c2.3-1.3,6-0.7,7.7,1.3c1.8,2.1,4.3,3.4,7,3.5c2.7,0.2,5.2-0.8,7.2-2.7
			c5.6-5.3,7.5-7.1,12.1-11.6l2-2c3.9-3.8,4.1-9.8,0.4-13.7c-1.8-1.9-4.2-3-6.8-3.1c-2.6-0.1-5.1,0.9-7,2.7l-2,1.9
			c-4.7,4.5-6.7,6.3-12.1,11.7c-1,1-1.8,1.1-3,1c-1.3-0.2-2.6-0.2-4-0.2c-0.3,0-0.7,0-1.1,0c0.8-2.1,2.2-3.9,4-5.7
			c2.3-2.2,3.9-3.8,5.4-5.2c2.5-2.4,4.5-4.4,8.4-8c4.7-4.4,10.1-5.6,16.1-3.6c6.1,2.1,9.7,6.4,10.7,12.6c0.8,5.4-0.6,9.9-4.4,13.6
			L105.5,69.1z M75.5,97.8c-3.3,3.2-5.4,5.3-10.1,9.6c-6.3,5.8-16,5.5-22.1-0.8c-6-6.2-6-16-0.1-22c6.3-6.4,8.3-8.3,15.2-14.6
			c2.9-2.6,6.5-4,10.3-4c1.3,0,2.6,0.2,4,0.5c5.2,1.3,9.4,5.1,11.2,10.1c0.1,0.2,0.1,0.4,0.2,0.6c-2.4,1.3-6.1,0.7-7.7-1.3
			c-1.8-2.1-4.3-3.4-6.9-3.5c-2.6-0.2-5,0.7-6.9,2.5c-6.6,6.1-8.2,7.8-14.6,14c-3.7,3.6-3.6,9.7,0.1,13.5c3.6,3.7,9.6,3.8,13.4,0.3
			c6.5-6.2,8.2-7.7,14.4-13.8c0.8-0.8,1.4-1,2.5-0.8c1.4,0.2,2.8,0.2,4.3,0.2c0.4,0,0.8,0,1.1,0c-0.8,1.9-1.9,3.6-3.3,5
			C78.3,95.1,76.8,96.5,75.5,97.8z M74.9,88.2c-6.2,6.1-7.8,7.6-14.3,13.8c-3.4,3.2-8.7,3-12-0.3c-3.4-3.4-3.4-8.8-0.1-12.1
			c6.4-6.3,8-7.9,14.6-14c1.7-1.6,3.9-2.4,6.2-2.2c2.4,0.1,4.7,1.3,6.2,3.2c2.1,2.5,6.5,3.1,9.3,1.3l0.3-0.2L85,77.1
			c-0.1-0.2-0.1-0.5-0.2-0.7C82.9,71,78.4,67,72.9,65.6c-0.5-0.1-1-0.2-1.5-0.3c1.4,0.2,2.5,0,3.8-1.2c5.4-5.4,7.4-7.2,12.1-11.7
			l2-1.9c1.7-1.6,3.9-2.5,6.3-2.4c2.3,0.1,4.5,1,6.1,2.7c3.3,3.5,3.1,8.9-0.4,12.2l-2,2c-4.7,4.5-6.6,6.4-12.1,11.6
			c-1.8,1.7-4.1,2.5-6.4,2.4c-2.4-0.1-4.6-1.3-6.3-3.2c-2.1-2.5-6.6-3.1-9.3-1.3l-0.3,0.2l0.1,0.6c0,0.2,0.1,0.3,0.1,0.5
			c1.8,5.4,6.1,9.5,11.7,11c0.7,0.2,1.3,0.3,2,0.4c-0.2,0-0.3,0-0.5,0C76.8,86.9,76,87.2,74.9,88.2z"/>
	</g>
</g>
</svg>
