<svg xmlns="http://www.w3.org/2000/svg" xmlns:xlink="http://www.w3.org/1999/xlink" width="60px" height="62px" viewBox="0 0 60 62" version="1.1">
    <g id="Welcome" stroke="none" stroke-width="1" fill="none" fill-rule="evenodd">
        <g id="style-sheets-copy-2" transform="translate(-852.000000, -793.000000)">
            <g id="Group-2-Copy" transform="translate(852.193405, 793.344831)">
                <g id="Group-3">
                    <polygon id="Clip-2" points="4.75534587e-05 0.141584245 58.8508797 0.141584245 58.8508797 60.9314827 4.75534587e-05 60.9314827"/>
                    <path d="M29.4267598,5.67632859 C25.528247,5.67632859 21.6299014,5.65872233 17.7315558,5.68875655 C16.7631535,5.69617879 15.7730232,5.75141413 14.8318646,5.96665934 C9.14362946,7.26745156 5.37866062,12.1267805 5.3617796,18.1926563 C5.33904873,26.4170256 5.34690425,34.6417401 5.36879943,42.8662819 C5.37130652,43.8071814 5.45537734,44.7696572 5.65878527,45.6850103 C6.95711955,51.5275282 11.6278136,55.3650034 17.4754992,55.3820918 C25.4393292,55.4055668 33.4033263,55.3965911 41.3669892,55.3760504 C42.2514878,55.3736339 43.1555416,55.2983757 44.0166408,55.1003916 C49.7035388,53.7932128 53.4695105,48.9376813 53.4860572,42.8718055 C53.5089552,34.6474362 53.5000969,26.4225491 53.4802074,18.1981798 C53.4780346,17.2847254 53.4049949,16.3512482 53.2132867,15.4617866 C51.9547314,9.62064959 47.2710006,5.72621301 41.4560742,5.68254257 C37.446247,5.65250835 33.4364198,5.67684643 29.4267598,5.67632859 M58.840349,30.6212979 C58.840349,34.6474362 58.8478703,38.6735745 58.8388448,42.6997129 C58.8206266,50.7141879 54.2990204,57.3957651 46.9539382,59.9450486 C45.1428221,60.5736958 43.140332,60.8450394 41.2207428,60.8697227 C33.3693972,60.9701819 25.5158788,60.9206427 17.663196,60.9090778 C9.21065212,60.8968225 2.36447932,55.3309991 0.438705949,46.8408098 C0.130836261,45.4839191 0.0323915014,44.0500443 0.0258730878,42.6510367 C-0.0115660057,34.5702793 -3.3427762e-05,26.4890041 0.00966062323,18.4079015 C0.0203575071,9.66518308 5.37665496,2.62405832 13.6122527,0.603135373 C14.8719779,0.294162699 16.20257,0.178168488 17.5014057,0.171954513 C25.4374907,0.133807607 33.3739099,0.134498049 41.310162,0.157973068 C49.6779666,0.18282897 56.5667598,5.84583204 58.4231705,14.2642154 C58.7230176,15.6238678 58.8047484,17.0560166 58.822298,18.4567502 C58.8734425,22.5108515 58.840349,26.5663336 58.840349,30.6212979" id="Fill-1" fill="#FFFFFF"/>
                </g>
                <path d="M40.4990778,30.5045984 C40.5020002,24.4322907 35.6209776,19.5278932 29.5478055,19.5009044 C23.4426595,19.4737437 18.5040492,24.389143 18.5011269,30.4951437 C18.4982045,36.5676233 23.3792271,41.471849 29.4523992,41.4988378 C35.5573733,41.5259985 40.4961555,36.610771 40.4990778,30.5045984 M45.9999837,30.5152564 C45.9874348,39.5850397 38.5194393,47.0296505 29.463401,46.9999112 C20.3881095,46.9700001 12.9532914,39.4923839 13.000221,30.4418538 C13.0471506,21.3939021 20.4591056,14.0053319 29.4938279,14.0000029 C38.5576018,13.9946739 46.0127046,21.4537244 45.9999837,30.5152564" id="Fill-4" fill="#FFFFFF"/>
                <path d="M48.9999399,17.5205601 C48.9883335,19.465064 47.3634348,21.0433558 45.4191178,20.9990911 C43.5231608,20.9557939 41.9889373,19.3765345 42.0000601,17.4794399 C42.0116665,15.534936 43.6363234,13.9566442 45.5806404,14.0009089 C47.4768392,14.0442061 49.0110627,15.6234655 48.9999399,17.5205601" id="Fill-6" fill="#FFFFFF"/>
            </g>
        </g>
    </g>
</svg>