<?xml version="1.0" encoding="utf-8"?>
<!-- Generator: Adobe Illustrator 16.0.0, SVG Export Plug-In . SVG Version: 6.00 Build 0)  -->
<!DOCTYPE svg PUBLIC "-//W3C//DTD SVG 1.1//EN" "http://www.w3.org/Graphics/SVG/1.1/DTD/svg11.dtd">
<svg version="1.1" id="Layer_1" xmlns="http://www.w3.org/2000/svg" xmlns:xlink="http://www.w3.org/1999/xlink" x="0px" y="0px"
	 width="37.04px" height="53.577px" viewBox="0 0 37.04 53.577" enable-background="new 0 0 37.04 53.577" xml:space="preserve">
<path fill-rule="evenodd" clip-rule="evenodd" fill="#F4E915" d="M37.04,19.346c-0.227,4.854-1.849,10.061-4.271,15.041
	c-2.997,6.16-6.721,11.862-11.067,17.15c-2.287,2.783-3.983,2.68-6.206-0.076C10.302,45.021,5.69,38.229,2.762,30.43
	c-1.911-5.089-3.521-10.294-2.383-15.805C2.2,5.811,11.186-0.832,19.791,0.084C30.046,1.177,37.068,8.722,37.04,19.346z
	 M26.546,18.596c0.022-4.561-3.882-8.553-8.34-8.53c-4.646,0.024-8.449,3.744-8.542,8.359c-0.094,4.63,3.727,8.616,8.233,8.585
	C22.802,26.979,26.522,23.359,26.546,18.596z"/>
</svg>
