<svg xmlns="http://www.w3.org/2000/svg" xmlns:xlink="http://www.w3.org/1999/xlink" version="1.1" id="Layer_1" x="0px" y="0px" viewBox="0 0 1080 600" style="enable-background:new 0 0 1080 600;" xml:space="preserve">
<style type="text/css">
	.st0{fill:#FFFFFF;}
	.st1{fill:none;}
</style>
    <path class="st0" d="M263.4,211.5c-1.3,1.3-2.6,2.5-3.8,3.7c-2.6,2.6-2.6,2.6-0.4,5.8c1.7,2.5,1.8,3.5-1.1,6.2  c-2.1,2-2.3,3.3,0.1,4.9c2.8,1.9,1.7,3.3,0.2,6c-1.6,2.9-2.8,6.6-2.7,10.3c0,1.5,0.4,3.4-0.4,4.4c-1.8,2.4-1.8,4.6-0.2,6.8  c2,2.5,4.6,4.3,8,4.4c1.5,0.1,3,0,4.6,0c72.5,1.1,73.4-1.6,78.6,0.6c1.8,0.7,4.3,3.7,2.4,4.4c-1.6,0.6-2.3,4.3-3.5,5.2  c-1.5,1-0.8,1.6,0,2.7c2.4,3.1,2.6,4.9,0.1,7.7c-2,2.1-1.5,3.3,0.4,4.8c2.2,1.9,2.1,4-0.1,5.7c-2.4,1.7-2.4,4.9-1.4,6.1  c3.1,3.9,0.5,6.6-1.5,8.9c-2.2,2.5-0.8,3.4,0.9,4.1c0.9,0.4,1.8,0.7,2.5,1.4c0.8,0.8,1.4,1.7-0.3,1.7c-1.9,0-1.3,1.9-2,2.4  c-2.8,2-2.5,4.4-0.7,6.4c1.9,2.1-2,2.7-0.6,4.3c-2.5,2.1-4.5,4-0.6,7c1.5,1.1,1.5,4.3,0.1,5.4c-3.2,2.6-2.5,5.8-2.4,9  c0.1,3.6-1.4,7.7,2.7,10.3c0.3,0.2,0.3,1.5-0.1,2c-0.5,0.8-1.4,1.4-2.1,2.2c-2.6,2.8-2.6,2.8-0.6,6.1c2,3.3,2.1,4.4-1.1,5.7  c-2.7,1.1-2.6,1.8-0.9,3.5c1.2,1.3,2.5,2.6,3.8,3.8c2.3,2.1,0.1,1.6-1.1,2.2c-4,1.9-8.1,2.9-12.5,2.9c-23.6,0-47.2,0-70.7,0  c-1.9,0-3.8-0.4-5.8,0.7c-3.2,1.8-4.1,3.2-1.6,5.7c2.2,2.3,2.2,3.8-0.2,5.4c-2.9,2-2,3.3,0.1,5.5c2.1,2.2,1.7,3.4-0.6,5.7  c-0.7,0.7-1.4,1.5-2.2,2.1c-1,0.9-1.7,1.6-0.2,2.7c1,0.7,2.1,1.6,2.6,2.7c0.8,1.6,2.1,3.3-1.1,4.5c-2.6,1-1.5,3.9-0.6,5.7  c1.2,2.5,1.5,4.4-0.2,6.8c-1.3,1.8-2.3,3.8,0.4,5.9c1.5,1.1,1,2.9-0.3,4.6c-2.9,3.6-2.9,3.9-0.3,6.7c1.6,1.7,1.7,2.8-0.1,4.3  c-0.8,0.6-1.4,1.5-2.2,2.1c-1.5,1.3-1.4,2.5,0.1,3.7c1,0.8,1.8,1.8,2.7,2.7c1.1,1.1,1,2.1-0.1,3.1c-0.9,0.9-1.7,1.8-2.7,2.7  c-1.5,1.3-1.1,2.3,0.1,3.7c2.9,3.7,3,3.9-0.5,7.2c-1.8,1.8-2,2.5-0.1,4.5c2.7,2.9,2.4,3.7-0.4,6.8c-2.2,2.5-2.3,3.2,0,6.2  c0.8,1,1.1,1.3,0.3,2.8c-1.8,3.3-3.7,7-0.5,10.8c0.7,0.8,0,1.9-0.8,2.6c-2.7,2.1-4.2,4.4-1.2,7.4c1.1,1.2,0.4,2-0.1,3.2  c-0.8,1.8-2.8,2.5-3.5,3.8c-1.2,2,2.5,2.8,2.7,4.7c0.2,2.2,0.8,4.6-2.6,5.7c-2.5,0.9-2.2,1.9,0.6,4c0.6,0.5,1.1,1.1,1.6,1.6  c1.4,1.2,2.5,2.1,0.3,3.8c-2.4,1.9-4.5,3.9-1.5,7.4c1.8,2.1-2.1,4.3-1.4,6.9c0.5,2.1,1.5,4.6,3.7,6.4c-1.6,1.8-3.3,2.7-4.3,4.8  c-1.4,3.1,10.1,7.6-11.4,7.1c-6.6-0.1-10.7,0-17.3-0.1c-2.1,0-4.4,0.8-6.4-1.2c-1.4-1.4-2.4,1-3.8,1.4c-1.4,0.4-1.9-2.5-2.9-1  c-1.7,2.9-3.5-1.3-5.6,0.5c-1.4,1.1-4.3,0.4-6.6,0.4c-23.6,0-47.2,0-70.7,0.1c-3.4,0-7-1-10,1.5c-3.1-2.8-6.2,0.3-9.4,0.1  c-7.1-0.4-14.2-0.1-21.3-0.1c-1.3,0-2.6,0.2-3.8-0.1c-3.9-0.9-4.7-3.2-1.6-5.7c2.9-2.3,2.6-4.6,0.8-6.7c-1.9-2.3-1.7-3.8,0.5-5.5  c1.7-1.3,1.7-3.2,0.5-4.6c-2.7-2.9-1.7-5.3,0.6-7.7c0.1-0.1-0.1-0.5,0-0.7c1.8-3.5,2-3.9-1.3-5.4c-2.8-1.3-1.8-2-0.6-3.7  c0.9-1.2,6-4.1,3.6-6.4c-2.9-2.8-2.3-5.2,1.3-8.2c0.6-0.5,2.1-0.2,0.8-1.6c-0.2-0.2-0.4-0.4-0.5-0.5c-4.3-4.7-4.3-4.7-0.1-9.5  c2-2.3,1.9-3.1-1.1-5.2c-2.9-2.1-3-2.2-0.3-4.5c0.5-0.5,1.2-0.6,1.2-1.5c0-4.4-0.6-8.9,1.5-13.1c0.2-0.4,0-1,0-1.5  c0.4-2.1-2.6-3.1-1.6-5.5c0.9-1.9,2.7-2.9,4-4.4c1.9-2.3-0.3-3.2-1.5-4.2c-2.6-2.2-2.7-2.1-0.8-4.3c0.7-0.7,1.4-1.4,2.1-2.2  c1.2-1.1,0.7-2-0.1-3.2c-3-4-3.1-4.3,0.6-7.8c2.2-2.1,2.1-3.3,0-5.4c-2.2-2.2-1.9-2.6,1.3-5.1c2.7-2.1,2.8-4,0.3-6.8  c-0.5-0.6-1-1.1-1.6-1.6c-1.1-1-1.4-1.2,0.5-2.1c3.8-2,4.1-4.7,1.2-8.3c-1.4-1.7-2-2.9,0-4.2c2.3-1.6,2.6-4.7,1.6-6  c-2.9-3.5-0.6-6,0.9-8.5c1-1.7,0.7-2.4-0.3-3.8c-2.8-3.6-2.7-3.7,0.6-7.3c2-2.2,1.9-2.9-0.1-4.3c-2.8-1.9-3.1-2.6-1.6-4.7  c0.1-0.2,0.4-0.4,0.5-0.5c1.1-1.1,2.2-2.2,3.2-3.2c-1.9-1-1.3-3.7-3.2-4.8c-1.4-0.8-1.4-1.7,0-2.7c0.6-0.4,1.1-1,1.6-1.6  c2.2-2.5,2.2-3.1,0-6.3c-2.2-3.1-2-4.6,0.9-6.8c2.9-2.2,3.1-3.1,0.8-5.2c-0.3-0.3-0.8-0.6-1.2-0.8c-2.1-1.5-2.2-1.6,0.1-3  c1.8-1.2,2.8-2.6,2.6-4.9c-0.2-2,0-4.1-0.1-6.1c-0.1-1.3,0.2-2.4,1.3-3.3c1.1-0.9,2.5-1.9,0.3-3.2c-0.6-0.4-1.1-1-1.6-1.6  c-2.3-2.6-2-4.6,0.8-6.8c3-2.3,3.2-2.5,0.8-5.1c-1.7-1.9-2.3-3.3,0-4.8c1.4-0.9,1.1-2.6,2.1-3.7c1-1.1,0.4-1.1-0.6-1.7  c-3.6-2.2-3.4-2.3-1.7-6c0.6-1.2,1.4-2,2.2-2.8c1.5-1.5,1-2.5-0.3-3.7c-1.1-1-2.2-2.1-3.7-3.7c0.8-0.6,1.7-1,2.3-1.7  c3-3.1,2.8-3.1,1.1-7.5c-0.5-1.4-2.2-2.6,0.2-4.8c3.3-3,3-3.9-0.1-6.7c-1.9-1.7-1.4-2.8,0.3-3.8c1.3-0.8,0.6-2.4,1.6-3.2  c1.6-1.3,1-2.3-0.1-3.7c-2.5-3.1-2.6-3.3,0.1-6.7c1.1-1.4,0.8-2.7,1.1-4.2c0.6-3.6-1.5-7.5,1.4-10.8c0.5-0.6,0-1.6-1.1-2.3  c-3.3-1.9-3.3-2.2-1-4.5c1.9-1.9,3.1-3.5,1.3-6.4c-1.4-2.1-0.7-4.4,0.7-6.8c0.8-1.4,2.6-3,1.8-5.4c-0.6-1.6-3.3-2.1-2.6-3.8  c0.6-1.5,2.6-2.4,3.6-3.9c1-1.5,0.9-3.4-0.8-4.6c-2.7-1.9-2.2-3.5,0.1-5.3c1.7-1.3,1.7-3.1,0.6-4.6c-2.3-3-1.9-5.5,0.3-8.5  c2-2.8,1.7-3.1-0.8-5.8c-2.6-2.8-2.8-4.5,0.4-5.6c4.1-1.3,2.4-3.5,1.2-4.8c-2.8-2.8-2.8-4.9,0.1-7.5c1.7-1.5,1.6-3.7-0.4-5.1  c-2.7-2-2-3.6,0.2-5.3c0.8-0.6,1.5-1.4,2.1-2.2c0.3-0.3,0.4-0.9,0.4-1.3c0.3-2.8-5.9-2.5-3.2-6.7c0.3-0.5-1.5-0.7-2.5-0.7  c-9.6,0-19.3,0-28.9,0c-0.8,0-1.8-0.1-1.8-0.8c0-0.5,0.9-1.1,1.5-1.6c2.4-1.8,2.4-2.1,0.5-3.8c-0.6-0.5-1.1-1-1.7-1.4  c-2.4-1.8-2.7-2.8-1-4.8c0.5-0.6,1-1.2,1.6-1.6c2.4-1.8,2.7-3.5,0.1-5.3c-1.5-1-1.8-2.3-0.3-3.7c0.8-0.7,1.4-1.5,2.2-2.1  c2-1.8,2.4-3.9,0.2-5.7c-2.6-2-2.2-3.7,0.2-5.3c1.3-0.8,0.6-2.4,1.6-3.2c1.2-0.9,0.5-1.3-0.1-2.2c-3.4-4.8-2.9-6.5,2.7-9.5  c-2-1.9-4.1-3.8-6.1-5.6c0.3-0.6,0.6-1,0.7-1.3c1.1-2.2,4.9-2.1,5.1-4.5c0.1-1.8-1.9-3.7-2.8-5.6c-0.3-0.6-0.1-1.5,0-2.3  c0-2.7,2.1-4.8,1.7-7.8c-0.3-2.5-0.9-5.2,1-7.9c1.3-1.9-1.1-3.2-3.1-3.9c-1.7-0.6-1.6-1.7-0.6-2.8c1-1.1,2.2-2.2,3.2-3.2  c2.4-2.5,2.6-2.7,0.2-5.8c-1.2-1.5-1.3-3-0.8-4.2c2.1-4.8,1.2-9.7,1.4-14.6c0-0.7-0.2-1.9,0.2-2.2c2.1-1.5,0.4-9.9-0.5-10.9  c-0.5-0.6-2.4-1.7-0.6-2.3c4.3-1.3,15.7-1.2,16.7-1.2c53.8,0,257.4-2,261.4-2.3c1.6-0.1,7,4.8,5.6,6.2c-1.2,1.3-2.5,10.1-3.8,11.3  c-1.1,1.1-1,2.2,0.1,3.1c3.1,2.5,3,4.8,0.1,7.4c-1.7,1.5-1.6,4.5-0.6,5.5c3.6,3.4,1.7,5.7-0.9,8.1c-1.5,1.4-1,2.3,0.1,3.7  c3,3.9,3,4.4-1.4,7.1c-1.5,0.9-1.6,1.6-0.8,2.8c0.4,0.6,1.1,1.1,1.6,1.6c3,3.2,3,3.3,0.1,6.3c-1.9,1.9-3.3,3.6-1.3,6.3  c1.2,1.6,1.2,4-0.1,5.5c-1.4,1.7-0.4,3.4-0.9,5c-0.7,2.2,2.6,3.4,1.3,5.3c-1.1,1.6-2.8,2.9-4.5,4.6c0.8,0.6,1.6,1.2,2.2,1.9  c1.1,1.2,2.5,2.1,2.6,4.3c0.1,2.6-6.2,4.8-6.9,6c-0.6,1.1,1.7,5.4,2.5,6c3.7,2.8,2.6,2.5-0.3,5.1c-2.3,2-4.5,3.2-1.7,5.2  c2.8,2.1,3.5,4.6,1.1,6.2c-2.3,1.6-13.2,1.6-17.6,2c-5.2,0.5-36.4,0-40.5,0.5c-3.7,0.4-10.1,0-14,1.9c-3.9,1.9-1.9,10.1-3.3,14.7  c-0.2,0.8-0.8,1.2-1.1,1.8c-1.3,2.6-1.5,7.5,0.1,10c0.7,1.1,0.9,1.4-0.1,2.2c-1.2,1-2.6,2-3.1,3.3c-0.5,1.3-1.3,2.8,1.2,4.1  c4.1,2.2,3.8,2.6,0.9,5.7c-2.5,2.7-2.5,2.7-0.1,6.3c0.6,0.9,1,1.8,0.2,2.6c-0.7,0.8-0.8,2.2-1.2,2.5c-3.6,2.6-2.4,5.1-0.1,7.5  c1,1.1,2.3,2,0.2,3.3c-0.2,0.1-0.4,0.3-0.5,0.5C256.6,207.8,256.6,207.8,263.4,211.5z"/>
    <path class="st0" d="M407.9,228.2c2.2-2.2,4-4,5.5-5.5c-1.9-1.9-3.7-3.7-5-5c-0.3-2.7,1.4-2.9,1.7-3.9c0.7-1.8,3.6-0.8,3.8-2.8  c0.3-2.1-1.8-3-3-4c-1.8-1.5-1-2.3,0.2-3.3c0.8-0.6,1.4-1.3,1.4-2.5c-0.1-6.3,0-12.6-0.5-18.9c-0.1-1.1-0.4-1.7,0.4-2.7  c2.4-3.1,2.5-4.9-0.1-7.7c-2-2.2-1.3-3.3,0.4-4.9c1.1-1,2.5-1.7,2.8-3.4c0.2-1.4-0.8-3.5,0.5-4.2c1.4-0.7,3.4-0.4,5.1-0.4  c5.3,0,10.7-0.3,16,0.1c3.2,0.2,6.2-0.6,9.4-0.5c3.1,0.1,125.2-0.8,130.5-1c0.9,0,2.2,1.3,2.7,2.2c0.7,1.4-0.6,2.3-1.6,3  c-0.7,0.5-1.8,0.6-2.6,1.1c-2.6,1.9-2.5,2.6,0.5,5.7c2,2.1,2,4.5,0.1,5.8c-3,2.1-3.6,4-1.2,6.6c2.2,2.3,2,3.5-0.1,5.4  c-2.1,2-1.7,4.3-0.2,6.7c1.5,2.4,0.5,5-1.7,5.5c-4.1,0.9-2.3,2.9-1.5,4.8c0.5,1.1,2.2,1.5,2.2,2.9c0,1.1,0.7,2.9-1,3.1  c-1.8,0.2-2.4,1.5-3.4,2.4c1.5,0.7,1,2.8,2.2,3.6c2.6,1.8,1.9,3.3-0.2,4.9c-1,0.8-1.7,1.9-2.7,2.6c-1.3,1-0.2,1.5,0.3,2.2  c2.6,3.7,2.6,6.3-0.2,9.8c-1.5,1.8-1.8,2.3,0.8,3.6c2.6,1.3,1.7,5.4-1.9,7.3c-2.1,1.1-1.8,1.9-0.7,3.2c0.2,0.2,0.4,0.4,0.5,0.5  c1.1,1.1,3.2,2.4,3,3.2c-0.4,1.7-1.7,3.4-3.1,4.7c-1.6,1.6-1.7,2.8,0.1,4.3c2.4,2,2.5,4.1,0.1,6.3c-2,1.8-2.1,3.6-0.3,5.8  c2.4,3.1,2.3,3.3-0.6,5.8c-0.4,0.3-0.7,0.8-1.1,1.1c-0.9,0.6-2.7-0.2-2.6,1.9c0.1,1.5,1.3,2.1,2.2,2.8c3,2.4,3.1,2.7,1,5.2  c-0.8,1-1.8,1.8-2.7,2.7c-0.9,0.8-1,1.9,0,2.6c3.7,2.4,3,5.5,0.9,8.2c-1.8,2.3-1.6,3.6,0.4,5.6c2.1,2.1,1.8,3-0.8,4.8  c-3.2,2.3-3.2,2.4-1.4,6.6c0.9,2.1,2.2,4.1-0.7,5.9c-2.2,1.4-2.8,2.9-0.7,5.4c1.6,1.9,2.5,4.4-0.6,6.8c-1.5,1.1-1.7,4.4,0.3,5.9  c2.5,1.9,1,2.7-0.2,4.5c-1.5,2.1-3.6,4.5-1,7.5c0.6,0.7,0.6,3,0,3.6c-3.1,3.4-2.7,5.9,0.8,8.7c1.2,1-0.8,3.8-1.3,3.9  c-4.2,1.2-2.9,4.1-1.8,6.3c1.6,3.2,1.2,5.5-1.4,7.9c-1.3,1.2-1.3,2.1,0.8,3.1c2.1,1,2,4.3,0.4,6c-2.5,2.7-3,4.2-0.9,6.3  c2.7,2.5,1.9,4.1-0.4,5.9c-0.4,0.3-0.7,0.7-1.1,1.1c-1.4,1.2-1.8,2.4-0.2,3.7c2,1.6,2.6,2.8,0.7,5.5c-1.6,2.3-3.6,5.5-0.5,8.6  c0.7,0.7,0.7,2.4-0.1,3.5c-0.7,1-1.8,1.8-2.7,2.7c1.5,0.9,1.6,2.4,1.5,3.9c-0.2,2.4,0.2,4.7-1.4,7.1c-1.6,2.4,1.7,5,1,7.5  c-0.6,2.2-2.7,3.9-2.7,6.5c0.1,3.3,0,6.6,0,9.9c0,0.7,0.1,1.8,0.5,2c1.1,0.7,3.5,0.4,2.4,2.6c-0.5,1.1-1.8,2.1-3.5,2.5  c-1.5,0.4-2.6,2.2-3.9,3.4c0.9,2,2.6,0.8,3.9,0.9c1.5,0.1,2.4,0.9,3,1.9c1,1.6-1,1.9-1.6,2.6c-2.6,3-2.9,3.1-0.7,6.7  c1.5,2.4,2,4,0,6.5c-1,1.3-2,3.6-0.1,5.5c2,2,2,3.7-0.4,5.4c-1.8,1.3-2.4,2.6-1.3,5.2c0.7,1.6,0.5,4.1-0.8,6.4  c-1.3,2.4-1.4,5.9,0.3,8.5c1.2,1.8,0.3,2.5-0.7,3.8c-2.4,3.1-2.4,4.7-0.1,7.7c0.8,1,1.5,1.3,0.3,2.8c-2.7,3.4-2.6,4.8,0.1,8.2  c1.4,1.8,1.9,2.3-0.8,3.6c-3.7,1.8-3.8,3.1-0.8,6.9c1.3,1.6,1.9,6.1,0.7,7.1c-5.8,5-4.5,3.4-2.2,9c0.9,2.3,0.7,2.5-1.2,2.1  c-4.3-0.8-8.2,1.2-12.2,2c-2.2,0.4-45.8-0.4-47.3-0.4c-11.4,0-22.9,0.8-34.2-0.2c-10.7-1-21.4-1.4-32.1-1.2  c-2.2,0-10.9,1.8-12.1,0.7c-1.8-1.7-3.4,1-4.6-0.8c-0.7-0.9-1.6-0.5-2.6,0.1c-3.5,2.1-7.3,0.6-11,0.9c-1.4,0.1-1.2-1.2-1.3-2.1  c-0.2-2.1,0.8-2-1.4-3.8c-0.5-0.4-0.4-0.1,0-0.3c2.4-1.2,0.9-3.7,2-5.4c1.3-1.8-2-6.4-0.2-8.2c1.9-1.8,0.9-3.8,1.2-5.6  c0.4-2.6-1.1-5.5,1.4-7.8c0.7-0.6-0.5-1.7-0.8-2.6c-0.9-2.3-1.5-4.8,1.1-6.7c1.1-0.8,1.4-1.8,1.4-3.2c0-1.8-1.6-1.5-2.2-2.1  c-1.6-1.7-1.2-3.9-0.1-6.1c1.8-3.8,1.7-3.9-1-6.9c-1.6-1.8-2.3-2.3,0.8-4c3.2-1.7,2.9-5.2,0.3-8.5c-0.8-1.1-0.7-1.6,0.2-2.2  c2.7-1.7,1.9-4.4,1.9-6.8c-0.1-5.1-0.2-5.2,2.1-7.7c1-1.1,0.3-1.4-0.1-2.2c-1.5-3.2-3.3-6.4-0.5-10c0.7-1,0.1-3,0.1-4.5  c0-1.5,0.2-3.1,0-4.6c-0.3-2.3,3.5-2.4,2.4-4.6c-0.7-1.5-2.5-2.5-3.6-3.9c-0.3-0.4-0.3-1.5,0-2c0.5-0.8,1.4-1.4,2.1-2.2  c2.8-3.1,2.9-3.5,0.5-6.8c-2.1-2.9-2.1-2.9,1.4-5.7c2.3-1.8,2.3-2.5,0.3-4.7c-0.9-0.9-1.9-1.7-2.6-2.7c-0.8-1.1-0.9-2.5,0.9-2.6  c1.5-0.1,2-1.4,2.9-2.1c1.2-0.9,2.4-1.9,0.3-3.2c-1.2-0.8-1.8-2.2-3.6-2.4c-1.5-0.2-1.4-1.8-0.3-2.8c0.7-0.6,1.4-1.2,2.3-1.7  c3.6-2,3.6-2.2,1-5.7c-1.3-1.7-1.4-3.1-0.4-4.7c1.6-2.5,1.2-5.1,0.3-7.7c-1.2-3.6-1.3-3.8,2.4-6.1c1.3-0.8,1.1-0.9,0.4-1.9  c-0.6-0.7-0.6-1.8-1.1-2.6c-2.5-3.8-2.5-3.8,0.4-6.9c1.2-1.3,2.2-2,0.9-4.3c-1.6-2.7-1.8-6.2,1.4-8.7c1.2-0.9,1.3-2,0.2-3.1  c-1.1-1.1-2.2-2.1-3.2-3.2c-1-1.1-1-2,0.4-2.9c4.4-3,4.5-3.3,1.7-7c-1-1.3-0.5-1.6-0.1-2.8c0.5-1.5,1.3-2.6,2.3-3.6  c1-0.9,1.5-1.8,0.5-3.2c-1-1.5-2.4-3.4-2.3-5c0.1-1.4,2-2.7,3.2-3.9c0.8-0.8,1.2-1.3,0.1-2.2c-1.1-0.9-1.9-2-2.3-3.6  c-0.3-1.1-1.3-1.7,0.1-2.8c0.9-0.7,1.3-2,1.9-2.9c1.2-2,2.2-3.4-0.2-4.9c-1.5-1-2.2-3.1-1.4-3.9c3.5-3.2,2.9-6,0-9.1  c-0.4-0.4-0.5-1.9,0.4-2.8c0.9-0.8,1.7-1.9,2.7-2.7c1.8-1.5,1.8-2.8,0-4.2c-0.8-0.6-1.4-1.5-2.2-2.1c-1.1-0.8-1.1-1.4,0-2.2  c0.8-0.6,1.5-1.4,2.2-2.1c1.7-2,2.2-4.8,0.4-6.6c-2.2-2.2-2.1-3.2,0.6-4.7c3.2-1.7,3.8-4.6,0.9-5.8c-3.9-1.6-2-3.2-1.1-4.9  c0.6-1.1,1.7-1.9,2.6-2.7c1.2-1,0.2-1.4-0.2-2.2c-1-2.4-3.6-5.8-1.7-7.3c3.8-3.1,2.1-7.3,3.8-10.8c1.6-3.4,0.4-7.4,0.6-11.1  c0-0.5,0.2-1.1,0-1.5c-0.8-2,2.8-2.7,1.4-4.6C411.1,231.1,409.5,229.8,407.9,228.2z"/>
    <path class="st0" d="M551.6,131.5c-4.4-0.4-1.1,0.4-5.6-1.2c-2.6-1-6.2-1.2-9.4,0.8c-1.5,0.9-3.9,0.4-5.9,0.4  c-30.2,0-67.9,0.1-98.1-0.1c-6.5,0-12.6,2.2-19.2,1.7c-6.5-0.5-13.2-0.4-19.8,0c-4.4,0.3-7.2-1-8.4-5.2c-0.4-1.5-1-2.7-2.2-3.7  c-1.4-1.1-1.8-2.3-0.2-3.7c2.1-1.8,3.1-3.6,1-6.3c-1.1-1.4-0.9-3.3,0.8-4.6c2-1.6,2.9-3.5,0.9-5.7c-1.6-1.8,0.6-4.5-1.6-6.2  c-1.2-0.9,0.3-1.2,0.6-1.6c0.8-1,1.8-1.8,2.6-2.7c1.1-1.3,1.3-2-0.7-3.2c-4.2-2.4-4.1-3.3-0.5-6.2c2.5-2,3-3.9,0.8-6.2  c-2.2-2.2-2.1-3.4,0.1-5.4c2.9-2.7,3-3.1-0.1-6.8c-1.4-1.7-1.7-2.8,0.2-3.8c2.2-1.2,0.4-3.7,2-5.4c1.2-1.2-1.2-2.2-2.1-3  c-1.8-1.6-1.8-3.1,0.2-3.7c3-0.9,3.4-2.5,2.1-4.7c-1.6-2.6-1.6-5.4-0.3-7.6c1.1-1.8,0.3-3.4,0.8-5c0.8-2.2-3-3.8-1.2-5.3  c3.1-2.7,0.2-14.8,3.7-17.3c2.1-1.6,45.7,0.2,60-1.2c14.3-1.5,28.9-0.3,43.3-0.3c14.4,0,28.9,0,43.3,0c1.7,0,12.9-0.4,16.6,0.9  c1.3,0.5,2.5,1.9,0.9,3.6c-0.4,0.4-0.8,3.2-1.1,3.6c-2.9,4-2.9,9,0.2,12.5c2.1,2.3,2.1,2.5-0.3,4.7c-1.1,1-2,1.9-3.6,2.3  c-1.2,0.3-4.2,2.4,0.3,3.1c0.8,0.1,1.5,1.3,2.2,2.1c2,2,1.9,2.9-0.5,4.7c-3.4,2.7-3.7,2.9-1.1,5.7c1.9,2,1.8,3.2-0.2,4.8  c-1.8,1.5-2.1,3.1-0.6,5.2c1.8,2.5,0.4,5.4,0.7,8c0.1,0.7-0.8,1-1.6,1.1c-1.8,0.2-1.7,1.4-0.9,2.6c0.4,0.6,1,1.2,1.6,1.6  c1.6,1.1,0.7,2.8,1,4.2c0.6,2.5-1.7,1.8-2.7,2.6c-0.9,0.8-2.9,1.6-0.6,3.2c0.6,0.4,1.1,1.1,1.6,1.6c1,1.1,2,2.1,3.1,3.2  c-1.1,0.9-1.8,2.2-3.6,2.4c-1.3,0.1-0.7,2.7-2.2,3.5c0.8,1.4,1.4,2.9,2.4,4.2c1.1,1.3,2.5,1.9,0.4,3.9c-3.6,3.2-3.2,3.4-0.5,8.4  c0.8,1.5,1.9,3.2-1.3,4.5c-3.6,1.4-3.3,2.6-0.9,5.5c2.3,2.8,4.9,3.7,8.5,3.6c8.4-0.3,16.7-0.1,25.1-0.1c1,0,2.7-0.2,2.5,0.7  c-0.1,0.8-1.3,2.5-2.7,2.2c-2.6-0.4-4.6,1.8-7,1.5C566.8,129.2,559.3,132.7,551.6,131.5z"/>
    <path class="st1" d="M831.5,105.6c0.1,1.5,0.4,3.8,0.6,5.5c0.3-0.5,0.3-0.9,0.4-1.5C832.7,107.9,832.3,106.7,831.5,105.6"/>
    <path class="st1" d="M833.3,90.5c-0.2,0.2-0.4,0.4-0.5,0.6c0,0.3-0.1,0.7-0.1,1c0.1,0.2,0.2,0.4,0.3,0.6  C833,91.9,833.2,91.2,833.3,90.5z"/>
    <path class="st1" d="M835.4,89c4-2.6,4.2-3.9,1.1-7.3c-0.3-0.3-0.6-0.6-0.9-0.9c-0.6,1.9-1.4,4.9-2.3,9.7  C833.8,90.1,834.5,89.6,835.4,89z"/>
    <path class="st1" d="M831.5,101C831.4,101,831.4,101,831.5,101c-0.1,0.5-0.2,1-0.2,1.5C831.3,102,831.4,101.5,831.5,101z"/>
    <path d="M832.8,91.1"/>
    <path class="st0" d="M1019.4,126.9c-2.1-1.4-4.1-1.3-6.3-1.3c-9.4,0-18.8,0-28.1,0c-0.8,0-1.6-0.1-1.8-0.9c-0.2-1-0.2-1.9,1.3-2.2  c3.4-0.7,5.7-2.4,4.8-6.4c-0.9-3.9-0.8-5.1,1.6-7.9c1.5-1.8,1.8-3.1,0.9-5.3c-1.6-4.1-1.5-4.4,2.2-6.1c1.1-0.5,1.6-1.7,3.1-1.7  c1.8-0.1,1.9-1.8,0.8-2.6c-3.1-2.2-1.9-4.5-0.2-6.4c2.7-2.9,5.7-5.2,0.8-8.7c-0.4-0.3-0.6-2.4,0.6-3.4c0.9-0.8,1.7-1.8,2.7-2.7  c1.6-1.4,1.9-3.3,0.7-4.6c-1.8-2-0.8-3,0.5-4.3c1.4-1.4,2.7-2.6,3.4-4.7c0.5-1.3,0.7-1.7-0.2-2.8c-2.1-2.6-2.1-4,0.5-5.1  c1.4-0.6,2.9-1.1,3.5-2.3c0.8-1.6,0.6-3.1-0.8-4.7c-0.8-0.9-0.9-3,0.6-4c3.2-2.2,3.1-6.2,1.9-8.1c-1.9-2.9-0.7-3.9,1-5.5  c1.7-1.6,3-3.1,2.1-5.8c-1.5-4.2-1.2-1.5,2.7-4.3c1.5-1.1,3.7-2.2,3.6-4.5c-0.2-2.8-3.1-0.2-4.2-1.8c-1.2-1.8-3.2-0.8-4.9-1.1  c-2.8-0.5-24-0.1-27.6,0c-16.5,0.1-119.5-1.3-129.8,0.5c-1.9,0.3-4.4-0.6-6,0.3c-1.9,1-0.6,3.7-0.8,5.6c-0.2,1.7-1.6,2.8-1.8,4.7  c-0.2,1.7-1,3.1,0.2,4.9c0.8,1.2,2,2.6-0.2,4c-2.7,1.6-2.8,3.6-1.5,6.6c1,2.3,1.1,5.6-2.9,7c-2,0.7-2.1,2.6-0.2,4.1  c1.2,1,2.3,2.2,4.1,4c-2.8,2.8-5.2,5.2-7.4,7.4c0.1,0,0.9,0,1.5,0.4c1.4,1,2.7,2.2,4,3.3c-2,2-3.6,3.7-5.3,5.2  c-1.4,1.3-1.4,2.2-0.1,3.7c3,3.8,2.7,4.2-0.1,7.4c-0.5,0.6-1.2,0.9-2.2,3.9c0.3,0.3,0.6,0.6,0.9,0.9c3.1,3.4,2.9,4.7-1.1,7.3  c-1,0.6-1.6,1.1-2.1,1.5c-0.1,0.7,0.4,3.4,1.2,4.3c1.3,1.5,1.3,2.6-0.2,3.7c-1,0.8-1.6,2-2.8,2.5l0,0c-0.2,0.1-0.4,0.1-0.6,0.2  c-2.5,0.5-1.8,2-0.6,3.1c0.3,0.3,0.6,0.6,0.9,0.9c0.1,0.1,0.2,0.3,0.3,0.4c0.8,1.1,1.2,2.4,0.9,3.9c-0.1,0.6-0.1,1.1-0.4,1.5  c-0.1,0.3-0.4,0.5-0.8,0.8c0,0,0,0,0,0c-3.7,2.6-3.7,2.8-1.9,6.4c0.9,1.7,2.7,3.1,0.1,4.9c-1.5,1-2.2,2.6-4.7,2.5  c-7.6-0.3-15.2-0.1-22.8-0.1c-4,0-4,0-4.6-4.3c-0.1-1.2-0.9-1.3-1.7-1.8c-3.9-2.5-3.9-3.1-1.2-6.9c2-2.9,2-3.6-0.4-6.3  c-0.3-0.4-0.7-0.8-1.1-1.1c-2-1.6-2.3-3.1-0.1-4.8c1.7-1.3,1.4-2.3,0.5-4.3c-0.9-2-3.1-2.1-3.5-3.7c-0.6-2.5,2.8-2.9,3.3-5.5  c0.2-1.4,1-2.2-0.4-3.3c-3.5-2.7-3.8-4-1.6-7.2c2.1-3.1,2-3.9-1-5.5c-1.6-0.9-4.3-1.3-4.7-2.6c-1-3.1,3.6-1.5,4.3-4  c0.4-1.3,1.9-1.8,0.2-3.4c-0.6-0.6-0.8-2.2-1.8-3c-1.7-1.4-1.9-2.5-0.3-4.3c2.5-2.8,2.3-3-0.1-5.2c-0.9-0.8-1.6-1.7-3-2  c-1.6-0.3-1.5-1.7-0.5-2.8c0.3-0.4,0.7-0.7,1.1-1.1c2.9-3.1,2.7-3,0.4-6.9c-0.9-1.6-3.2-3.7,0.1-5.9c1.6-1.1,1.4-3,0-4.6  c-0.7-0.8-1.4-1.5-2.2-2.1c-2.2-1.7-1.9-5.6,0-7.3c1-0.9,2.9-1.7,2.5-3.1c-0.4-1.3-1.8-2.6-3.1-3.2c-2.3-1.1-180.4-1.6-182.2,1.2  c-3.1,4.8,3.5,7,0.6,12c-0.6,1-0.6,1.8,0.2,2.6c0.9,0.9,1.8,1.8,2.7,2.7c0.9,0.9,1.8,1.8,2.7,2.7c-1.4,0.8-1.1,2.6-2.1,3.6  c-0.8,0.8-1.4,1.8-0.7,2.6c3.9,4.7,3,10.9,5.3,16.1c0.9,2,1.3,4.2-0.4,6.2c-0.9,1.1-1,2.6,0.8,2.7c1.5,0.1,2.1,1.2,3.1,1.7  c3.9,1.8,3.8,2,1.3,5.6c-1.8,2.5-1.6,3.1,0.8,4.9c3.5,2.5,3.6,3.3,0.9,7.1c-1.7,2.3-1.8,3.8,0.7,4.6c3.3,1,2.5,3,2.5,5.1  c0,0.4-0.3,0.9-0.5,1.3c-1.6,2.5-1.7,3.7,1.6,5.4c4,2,4.3,3.9,1.8,7.5c-1.6,2.3-0.4,3,0.8,3.9c3.7,2.8,4.1,3.8,2.4,7.5  c-0.7,1.6-2.2,3.2,0.5,4.7c1.8,0.9,2.1,3.8,3.4,4.5c1.8,0.9,24.8,0.3,34.6,0.3c-0.9,1.1-1.4,1.6-1.8,2.1c-2.1,2.6-2.3,4.4,0.4,5.1  c3.8,0.9,3,4,2.3,5c-2.2,3.2-0.7,4.9,1.6,6.7c2.4,1.9,2.3,4.5,1.1,6.7c-1.3,2.4-1.4,4.2,0.7,5.8c1.4,1,1,2.7,2.1,3.7  c1.2,1.1,1.1,2.2-0.1,3.1c-2.7,1.9-2.2,3.6,0.6,4.4c3.1,0.9,4.4,3.4,2.9,5.5c-2.4,3.3-0.9,5.1,1.4,6.9c1.8,1.4,3.1,3.7,1.9,5.1  c-2,2.2-1.1,3.4,0.2,5c2,2.6,2.2,5.8,1.3,8.4c-0.6,1.9-0.9,3.2,0.8,3.8c1.7,0.6,3.3,1.3,3.9,2.9c0.7,1.7-1,3.2-1.3,4.7  c-0.3,1.5-1.4,3.6,1.3,5.1c3.6,1.9,3.5,2.4,1,5.7c-1.3,1.7-1.7,4-0.3,4.5c5.1,1.9,4.7,4.6,2.7,8.6c-0.8,1.5-1.2,3.5,2.1,4.3  c2.3,0.6,3.2,3.3,1.2,6.1c-0.9,1.3-2,3.5,1.5,4.3c2.4,0.5,3.3,3.4,2.4,5.5c-1.4,3.2-1.1,5.7,1.1,8.3c1.2,1.5,0.6,3.4,0.5,5.1  c-0.1,4.2-0.2,4.1,1.3,5.8c2,2.2,1.8,2-0.6,4.3c-2.8,2.7-7.1,5-3.7,10.1c0.4,0.6-0.2,1.9-0.8,1.8c-2.8-0.4-3,3.3-5.6,3.2  c-1.4-0.1-1.6,1.7-1.1,2.2c2,1.6,1.5,3.7,1.3,5.5c-0.2,2.3-2.8,2.3-4.2,3.5c-1.6,1.3-3.8,2.4-2,5.6c1.1,2,0.8,4.8-3.4,4.7  c-1.3,0-4.7,1.9-2.7,5.7c1.1,2.1,0.6,5.1-3.1,6.4c-1.4,0.5-4.5,3.1-1.6,6.4c0.9,1,1.7,3.7-1.8,4.2c-1.3,0.2-3.4,2.1-3.8,4.3  c-0.3,1.6,0.7,2.7,1.3,4c0.5,1,1.4,3.6-1.9,3.7c-1.3,0-2.6,1.1-3.7,1.9c-1.3,1-2.9,2.1-1,4.2c1.6,1.8,1,3.6-0.8,5.2  c-1.3,1.2-2.5,2.5-3.8,3.7c-0.8,0.8-1.2,1.8-0.5,2.6c3.6,4-0.1,6.6-2.5,7.6c-2.6,1.2-3.1,2.7-2.1,4.3c0.8,1.4,1.6,2.6,1.2,4  c-0.5,1.7-1.8,2.7-3.8,3c-0.8,0.1-1.4,1.5-2.2,2c-1.8,1.2-1.4,2.2,0,3.3c1.8,1.3,2,2.7,0.1,4.2c-0.4,0.3-0.7,0.7-1.1,1.1  c-2.6,2.7-2.6,2.7-2.2,7.7c0.1,1.3-0.1,2.3-1.2,3.3c-1.4,1.4-3.4,2.1-4.6,3.3c-1.5,1.5,0.5,3.5,1.2,5.3c0.1,0.3-0.2,0.9-0.5,1.3  c-2,3.3-2.4,7.1-3.8,10.6c-0.8,1.9-1.3,2.9-3,4c-3.8,2.6-4,3.5-1.7,7.7c0.9,1.6,1.8,1.5-0.7,2.5c-3,1.2-4.7,4.2-4,8  c0.4,2.1,0,3.9-2,5.3c-2.9,1.9-3.6,4.1-0.2,6.3c0.9,0.6,0.4,1.2-0.2,1.6c-1.1,0.8-0.5,2.3-2.3,3.2c-3.7,1.8-4.5,4.8-2.8,7.7  c1.3,2.2,0.7,3.1-1.1,4.3c-2.7,1.7-3.2,3.4-2.3,6.5c0.5,1.7,0.1,3-0.8,4.7c-1.7,3.6-4.6,7-3.5,11.5c-1.9,2.2-0.6,5.5-2.2,7.4  c-2.8,3.5-2.6,7.4-2.3,11.2c0.2,2.7-0.6,5.2-2.1,6.7c-2.2,2.3-3,4-1.2,6.8c0.9,1.4-0.1,3.4-1.6,3.7c-3.1,0.6-2.4,2.8-3,4.8  c-1.7,5.6-1.3,11.2-1.4,16.9c0,1.1,0.2,1-0.8,1.5c-5,2.5-0.6,6.3-2.5,10.1c-4.8,9.2-5.1,12.6,5,12.6c7.4,0,37.1-0.1,37.9-0.1  c29.5,0,58.9,0,88.4,0c9.1,0,18.3-0.1,27.4,0.1c2.3,0,4.2-0.7,6.2-1.5c1.3-0.5,1.7-1.7,1.2-2.2c-2.6-2.3,0.1-4.7,0.9-5.2  c3.3-2.3,1.9-7.3,0.6-9.4c-1.2-1.9-2-3,0.1-4.9c3.5-3.3,3.8-3.9,1.1-7.7c-2.2-3.2-0.2-4.3,1.7-5c1.5-0.6,1.7-1.1,1.9-2.5  c0.3-2.6-2.7-2.9-3.1-4.8c-0.5-2.6,3.5-2.9,3-5.6c-0.2-1,0.4-2.4-0.1-3c-3.9-4.2-0.3-7.3,2.4-8.2c3.8-1.3,1.3-2,0.4-3  c-2-2.2-2-4.7-0.1-6.7c2.5-2.6,2.6-4.9,1-7.9c-0.8-1.5-1.6-3.2,1.7-4.4c3.3-1.1,3.4-3.6,1-6.5c-1.2-1.4-0.9-1.9-0.2-3.4  c0.6-1.5,1.6-2.4,2.5-3.5c1.3-1.6,1.5-3.4-0.1-4.6c-2.9-2.1-1.3-3.4,0.4-4.9c0.8-0.7,1.4-1.5,2.2-2.1c1.3-1,0.9-1.6,0.1-2.8  c-0.6-0.9-0.6-2.3-1.7-3c-2.6-1.7-0.5-3.3,0.6-3.6c1.6-0.4,2.9-1.1,3.5-2.4c0.8-1.6,0-3-0.9-4.7c-1.5-2.9-0.5-5.6,2.4-6.8  c2.8-1.1,2.2-1.8,0.8-3.6c-2.8-3.5-2.7-3.9-0.1-6.8c0.3-0.4,0.7-0.8,1.1-1.1c2.1-1.6,2-2.8,0.2-4.8c-2.5-2.8-2.4-5.4,0.8-6.5  c2.8-0.9,2.7-2.8,2.1-3.7c-2.6-3.2-1-5,1.1-7.6c2-2.6-0.3-5.8-0.2-8.7c0.1-3.1,4.6-4.5,3.8-8.3c-0.3-1.5,0-3-0.1-4.6  c-0.1-3.5,3.1-3.1,5-3.9c2.5-0.9,1.9,1.7,2.8,2.9c1.2,1.5,0.2,4.3,3.5,4.9c1.8,0.3,2.6,3.5,0.9,5.6c-2,2.4-0.7,4.9,0.8,6  c3.2,2.3,2,4.6,0.7,6.8c-1.1,2-3,3.6,1,4.4c1.3,0.3,0.3,2.3,0.6,3.5c0.6,3.1-1.2,6.4,1.4,9.3c1.6,1.7,1.1,4.4-0.3,6.1  c-1.5,1.8-1.1,2.7,0.2,4.3c2.9,3.5,3.1,4.6,1.4,7.8c-0.7,1.3-1,1.7,0.1,2.8c2.4,2.4,4,5.1,1.8,8.7c-0.6,1-0.7,4,0.5,4  c2.7,0.1,2.4,2.2,3,3.4c0.8,1.7-0.7,3.2-1.6,4.7c-1.1,1.7-0.4,2,1.2,3c3.2,2.1,3.7,5.4,1.5,7.8c-1.6,1.7-1.6,2.6,0.2,3.8  c2.3,1.6,3.8,4.1,2.5,6.4c-2,3.5-1.5,5.7,1.4,8.3c0.8,0.7,0.7,2.7-0.5,4c-1.3,1.5-1.3,3.3,0.3,4.6c3.1,2.6,2.9,6,1.3,8.7  c-1.4,2.4-0.4,3.8,1,4.2c4,1.2,4.6,3.8,4.3,7.3c-0.2,1.7-0.5,3.8,1.5,4.6c3.1,1.3,1.8,2.7-0.6,5.8c-1.1,1.4-1,3.8-0.2,5  c2.5,3.3,4.9,2.1,4.9,5.4c0,2.5-2.5,10.1,0,12.6c0.9,0.9,1.1,3.3,1,4.8c-0.2,2-1,3.2-1,5.3c0,1,12.2,4.3,17.8,3.6  c3-0.4,8.6-0.1,11.6-0.1c3.3,0,6.6,0,9.9,0c3,0,6.1-0.2,9.1,0.1c3.1,0.3,14.9,0.3,17.8,0c2.8-0.3,5.6,0.2,8.4-0.1  c2.1-0.2,38-0.1,58.2,0c2,0,6.1-0.9,13.3,0.1c2.3,0.3,33.3-0.2,35.7-1c2.6-0.9,2-4.1,1.8-6.5c-0.1-1.1-0.5,0.7-1.2-0.1  c-1.2-1.5-2.3-3.1-3.2-4.8c-0.3-0.5-0.1-1.8,0.2-2c5.4-2.1-2.8-7.9-4-10.6c-1-2-1.2-3.2,0.8-4.6c1.6-1.1,2.9-2.1,0.4-4.4  c-3.1-2.9-8-5.7-4.4-11.5c0.1-0.1-0.4-0.8-0.8-1c-1.9-1.6-2.7-2.8-0.7-5.5c2.3-3.1,1.6-7.6-1.9-9c-4.7-2-2.2-3.3-0.4-5  c1.5-1.5,1-2.6-0.3-3.7c-0.6-0.5-1-1.1-1.6-1.6c-1.6-1.2-5.5-1.4-1.8-4.9c1-0.9-0.7-2.1-1.5-3.1c-1.9-2.4-5.3-2.7-7-5.3  c-0.6-1-1.1-2-0.1-2.6c4.2-2.7,2.6-6.1,0.7-8.8c-1.4-2-1.2-3.8-1.1-5.6c0.1-2.5-0.7-4.2-2.4-5.9c-3.1-3.1-3-3.3,0-7.3  c1.5-2,1.1-2.2-1.2-3.4c-2.6-1.3-6.6-4-2.5-8.2c0.3-0.3,0.4-1.8-0.5-2c-4.1-0.8-6.2-3-5.8-7.3c0-0.3-0.6-0.8-1-1.1  c-2.8-2.1-2.6-5.9-1.5-7.5c2.4-3.3,0.3-4.3-1.3-6.1c-2.5-2.7-2.9-3.8-0.6-6.2c1.9-1.9,1.1-2.7-0.4-3.9c-2.4-1.9-5.3-3.6-4-7.3  c0.9-2.5,0.7-4.3-1.5-5.8c-0.6-0.4-1-1.1-1.6-1.6c-2.2-1.7-1.9-3.2,0.1-4.8c1.8-1.4,1.9-2.8,0.1-4.2c-0.8-0.6-1.5-1.4-2.2-2.1  c-1.7-1.7-1.4-3.3-0.1-5.2c2.5-3.4,2.4-3.5-1.1-5.8c-3.3-2.2-3.5-2.2-2-6.3c0.8-2.2,0.8-3.9-1.1-5.2c-3-2-3.4-4.9-2.9-7.9  c0.5-3.1-0.7-4.9-3.4-6.1c-1.2-0.5-1.9-1.8-0.7-3.1c1.3-1.5,2.6-2.9,3.9-4.3c-1.9-0.5-3.5-1.7-4.8-3.2c-0.3-0.4-1.1-0.9-1-1.1  c0.9-1.7-2.3-4.7,1.7-5.5c0.5-0.1,1.8-0.2,0.6-1.3c-0.9-0.9-1.8-1.8-2.7-2.7c-2.1-2.1-4.6-3.9-1.5-7.5c1.2-1.4,0.2-4.5-1.9-4.9  c-3.8-0.8-2.5-2.8-1.8-4.8c0.4-1.1,0.9-2.2,1.6-3.1c1-1.2,1.1-2.2-0.1-3.1c-2-1.5-2.2-2.4-0.2-4.5c1.3-1.3,3-3.3,2.6-5.7  c-0.4-2.4,0.9-3.7,2.4-5.1c1.5-1.4,2.9-2.9,4.3-4.3c1.1-1,0.9-1.8,0.3-3.2c-1.5-3.7-1.4-3.9,2.3-6.1c2.8-1.6,4-4.1,4.1-7  c0-1-2.1-2-0.6-3.7c1.1-1.3,2.5-1.3,3.9-1.7c3.1-0.8,4.1-2.7,2.4-5.5c-1.4-2.2-0.5-2.9,0.7-4.4c1.2-1.4,2.8-1.8,4.2-2.7  c1.4-0.9,2.4-1.8,1.1-4.2c-1.9-3.6-1.2-5.8,1.3-7c1.6-0.8,3.3-1.3,3.9-2.9c0.7-1.7-0.7-3.2-1.3-4.7c-0.4-1-1-2.7,1.4-3.5  c5.3-1.6,6.1-3.6,4.5-10c-0.2-1-0.1-2.2,1.3-2.1c4.2,0.2,4.6-3,4.6-5.8c0.1-3.1,0.6-6,2.7-8c1.9-1.9,2-3.8,2-6.1  c0.1-4,0-4.3,3.7-5.8c1.9-0.8,3.2-0.8,1.7-3.3c-1.6-2.6-1.4-5.1,1.1-7.2c1.8-1.5,2.1-3.7,3-5.6c1.7-3.4,0.7-7.8,4-10.6  c0.5-0.5,0.7-2.3,0.2-2.8c-1.5-1.7-0.7-2.6,0.5-4c1.2-1.4,3.1-1.3,4.3-2.6c0.9-0.9,2.1-1.8,1.1-3.1c-3.3-4.2,0.2-7.1,2.5-9.2  c1.6-1.5,3.5-1.3,1.3-3.9c-1.1-1.3-0.9-3.2,0.7-4.6c1.2-1,2.1-2.2,3.3-3.2c1.4-1.2,1.9-2.1,0-3.3c-2.2-1.3-1.4-3.6-1.4-5.5  c0-2.1,2.3-1.1,3.4-2.2c1-1.1,2.4-1.5,3.2-3.2C1020.8,127.4,1020.7,127.8,1019.4,126.9z M857.4,137.9c-1.2,0.2,0,1,0.3,1.5  c2.9,4.1,3,5.6-0.2,8.8c-1.5,1.5-1.8,2.3-1,4.6c1.2,3.1,0.3,6.5-2.9,8.5c-2.1,1.3-0.3,2.2,0.1,3.4c0.7,2.1,2.7,4-0.3,6.2  c-2.2,1.7-1.8,4.3-0.1,6.6c0.9,1.3,1.1,3.1-0.2,4c-2.9,2-2.3,4.7-2.4,7.4c-0.1,2.9,0.6,5.8-2.3,8.3c-1.9,1.7-0.6,4.8-0.7,7.2  c-0.1,1.3-0.6,1.5-1.8,1.8c-2.6,0.5-4.7-0.9-6.8-1.9c-1.2-0.6-2.4-1.7-2.1-3.6c1.1-6.5-1.6-12.7-1.7-19.1c0-3.9-3-7.8,0.2-11.7  c-1.2-2.1-1.7-4.4-3.6-6.1c-1.8-1.6-1.5-2.3,1-3.4c3.2-1.4,3.7-3.2,0.7-5.5c-1.4-1.1-2.5-2.5-4.2-4.2c1.2-1.2,2.2-2.3,3.3-3.3  c1.9-1.6,1.5-2.9-0.2-4.2c-0.8-0.6-1.4-1.4-2.2-2.1c-1.5-1.5-1.8-3.5-0.3-4.6c3.3-2.4,0.8-4.3-0.1-6.4c-0.2-0.4-0.7-0.8-1.1-1.1  c-0.9-0.7-1.2-1.5-1.1-2.6c0.3-1.8,1.6-0.7,2.3-0.7c1.1,0,2.1,0,3.2,0c0.2,0,0.4,0,0.6,0c2.8,0,5.6,0,8.4,0c4.8,0,9.6,0,14.4,0  c4.6,0,4.7,0,4.6,4.2C861.2,132.9,862.8,137,857.4,137.9z"/>
</svg>