<svg xmlns="http://www.w3.org/2000/svg" xmlns:xlink="http://www.w3.org/1999/xlink" width="153px" height="153px" viewBox="0 0 153 153" version="1.1">
    <!-- Generator: Sketch 53.2 (72643) - https://sketchapp.com -->
    <title>smiley</title>
    <desc>Created with Sketch.</desc>
    <defs>
        <polygon id="path-1" points="8.03149606e-05 0 153 0 153 152.99992 8.03149606e-05 152.99992"/>
    </defs>
    <g id="Welcome" stroke="none" stroke-width="1" fill="none" fill-rule="evenodd">
        <g id="Fix_landing-work-sans-Copy-3" transform="translate(-632.000000, -8236.000000)">
            <g id="smiley" transform="translate(632.000000, 8236.000000)">
                <g id="Group-10">
                    <g id="Group-3">
                        <mask id="mask-2" fill="white">
                            <use xlink:href="#path-1"/>
                        </mask>
                        <g id="Clip-2"/>
                        <path d="M153.00008,76.4999197 C153.00008,118.749605 118.749765,152.99992 76.5000803,152.99992 C34.2503953,152.99992 8.03149606e-05,118.749605 8.03149606e-05,76.4999197 C8.03149606e-05,34.2502346 34.2503953,-8.03149606e-05 76.5000803,-8.03149606e-05 C118.749765,-8.03149606e-05 153.00008,34.2502346 153.00008,76.4999197" id="Fill-1" fill="#F7EE35" mask="url(#mask-2)"/>
                    </g>
                    <path d="M78.8797222,100.380185 C85.5260016,100.986236 90.8433469,97.5338614 96.2628561,94.6667907 C103.82499,90.6670156 110.289466,85.1874236 116.290987,79.1484615 C119.651131,75.7675045 120.820786,71.7429927 120.387596,67.1008597 C120.235556,65.4714252 120.172006,63.775361 120.459191,62.1786428 C120.834059,60.0955679 122.461441,59.5721061 124.270223,60.3281733 C130.223478,62.8170109 133.563913,68.6832146 132.921568,75.275961 C132.573648,78.8492264 131.495699,79.4624588 128.09292,78.2631247 C127.534236,78.0664275 126.504152,78.3931922 126.048437,78.837656 C123.67896,81.1505434 121.41044,83.5663676 119.133072,85.9706214 C110.793045,94.7761112 101.09432,101.698016 89.7456892,106.104352 C82.5407265,108.901202 75.0107702,108.071723 67.5532135,106.976522 C54.4505024,105.052242 44.6122069,97.3395581 35.2561729,88.8859687 C30.8192866,84.8766181 26.6876852,80.5329222 22.4494955,76.3093194 C20.913016,74.7784329 19.2538594,74.136873 16.9841333,74.4444866 C13.6424914,74.897329 12.3207973,73.1254585 13.3319778,69.9787029 C14.8008844,65.4091843 19.8998244,61.4668624 24.6170578,61.6511911 C25.5675031,61.6882963 26.8871862,63.0165009 27.2564239,64.0291123 C27.6047462,64.9830736 26.7262983,66.3092833 26.7443981,67.4663254 C26.7685313,69.0175599 26.5633993,71.1026297 27.4466739,72.0270665 C35.0848272,80.017041 42.9353527,87.9024828 52.643329,93.4020239 C60.6788755,97.9539874 69.6584318,99.822411 78.8797222,100.380185" id="Fill-4" fill="#000000"/>
                    <path d="M87.0198604,34.9449005 C87.1810043,33.4464838 87.002429,31.7695762 87.5993587,30.5085978 C88.1370216,29.3729339 89.5478056,27.9652055 90.5313259,28.0006563 C91.6972951,28.0422905 93.6430304,29.3601552 93.7960397,30.3733899 C94.1733334,32.8780335 93.9978569,35.585489 93.5101642,38.0938427 C93.1460409,39.9653177 91.8239635,41.408497 89.5749212,40.8952842 C87.3444724,40.3857813 86.9102361,38.7179425 87.0140499,36.642419 C87.0423276,36.0789154 87.0183109,35.5125262 87.0198604,34.9449005" id="Fill-6" fill="#000000"/>
                    <path d="M65,32.6058091 C64.6035523,34.1071118 64.4894353,35.7670297 63.717073,37.057355 C63.1496473,38.0056065 61.520026,39.1847101 60.7243665,38.9756437 C59.6633554,38.6962516 58.5304784,37.286296 58.1999737,36.1511461 C57.8074746,34.8046365 58.0665082,33.2031961 58.3480493,31.7683971 C58.7287023,29.8275582 59.5243618,27.8202157 62.0353291,28.0128472 C64.8756165,28.2310864 64.9237904,30.4134791 65,32.6058091" id="Fill-8" fill="#000000"/>
                </g>
            </g>
        </g>
    </g>
</svg>