<svg xmlns="http://www.w3.org/2000/svg" xmlns:xlink="http://www.w3.org/1999/xlink" width="333px" height="333px" viewBox="0 0 333 333" version="1.1">
    <title>Fill 1</title>
    <desc>Created with Sketch.</desc>
    <defs/>
    <g id="Welcome" stroke="none" stroke-width="1" fill="none" fill-rule="evenodd">
        <g id="Fix_landing-work-sans-Copy-2" transform="translate(-32.000000, -1934.000000)" fill="#F8FF00">
            <polygon id="Fill-1" transform="translate(198.500000, 2100.500000) rotate(-10.000000) translate(-198.500000, -2100.500000) " points="198.500585 1932 177.364987 1994.56394 133.826171 1944.82642 138.314298 2010.69346 78.9992094 1981.3516 108.425799 2040.49236 42.3644854 2036.01751 92.2507637 2079.42752 29.5 2100.49942 92.2507637 2121.57248 42.3644854 2164.98249 108.425799 2160.5088 78.9992094 2219.6484 138.314298 2190.30771 133.826171 2256.17358 177.364987 2206.43606 198.500585 2269 219.635013 2206.43606 263.173829 2256.17358 258.685702 2190.30771 318.00196 2219.6484 288.574201 2160.5088 354.636684 2164.98249 304.750406 2121.57248 367.5 2100.49942 304.750406 2079.42752 354.636684 2036.01751 288.574201 2040.49236 318.00196 1981.3516 258.685702 2010.69346 263.173829 1944.82642 219.635013 1994.56394"/>
        </g>
    </g>
</svg>